<svg width="1600" height="1120" viewBox="0 0 1600 1120" fill="none" xmlns="http://www.w3.org/2000/svg">
  <rect width="1600" height="1120" fill="#06111C"/>
  <rect width="1600" height="1120" fill="url(#nightGlow)"/>
  <rect width="1600" height="1120" fill="url(#streetWash)"/>

  <rect x="0" y="0" width="196" height="1120" fill="url(#sideWallLeft)"/>
  <rect x="1404" y="0" width="196" height="1120" fill="url(#sideWallRight)"/>
  <path d="M0 192C164 136 334 162 486 190C644 220 770 240 944 206C1110 174 1268 146 1600 194V0H0V192Z" fill="url(#skyTint)"/>

  <g opacity="0.52">
    <ellipse cx="1180" cy="126" rx="216" ry="96" fill="#F7D38C"/>
    <ellipse cx="1180" cy="126" rx="292" ry="138" fill="url(#sunHalo)"/>
  </g>

  <rect x="186" y="164" width="1228" height="84" rx="12" fill="#55342C"/>
  <rect x="186" y="164" width="1228" height="84" rx="12" stroke="url(#signEdge)" stroke-width="4"/>
  <rect x="204" y="182" width="1192" height="48" rx="10" fill="#140F0D"/>
  <text x="324" y="218" fill="#F6E6B5" font-size="44" font-family="PingFang SC, Microsoft YaHei, sans-serif" font-weight="700" letter-spacing="5">上海名表维修服务中心</text>
  <text x="326" y="244" fill="#F7F0D7" font-size="18" font-family="Arial, sans-serif" font-weight="700" letter-spacing="8">SHANGHAI WATCH SERVICE ATELIER</text>

  <rect x="218" y="254" width="1164" height="54" rx="8" fill="url(#awningTop)"/>
  <path d="M218 300H1382V344C1290 364 1190 374 1084 374H516C410 374 310 364 218 344V300Z" fill="url(#awningFace)"/>
  <path d="M218 336C326 358 422 368 526 368H1074C1178 368 1274 358 1382 336" stroke="#E3BA6E" stroke-width="6" stroke-linecap="round"/>

  <g opacity="0.92">
    <rect x="224" y="350" width="1152" height="428" rx="18" fill="#0B151D"/>
    <rect x="224" y="350" width="1152" height="428" rx="18" stroke="url(#frameGold)" stroke-width="10"/>
  </g>

  <rect x="256" y="386" width="244" height="360" rx="10" fill="url(#windowGlassLeft)"/>
  <rect x="1100" y="386" width="244" height="360" rx="10" fill="url(#windowGlassRight)"/>
  <rect x="526" y="386" width="254" height="360" rx="10" fill="url(#interiorGlass)"/>
  <rect x="820" y="386" width="254" height="360" rx="10" fill="url(#interiorGlass)"/>

  <rect x="500" y="370" width="16" height="392" fill="#C6974C"/>
  <rect x="780" y="370" width="16" height="392" fill="#C6974C"/>
  <rect x="1076" y="370" width="16" height="392" fill="#C6974C"/>
  <rect x="240" y="370" width="16" height="392" fill="#C6974C"/>
  <rect x="1344" y="370" width="16" height="392" fill="#C6974C"/>

  <g opacity="0.88">
    <rect x="586" y="420" width="428" height="236" rx="18" fill="#1B2429"/>
    <rect x="614" y="448" width="372" height="56" rx="16" fill="#202C32"/>
    <rect x="636" y="530" width="328" height="84" rx="18" fill="#11181D"/>
    <text x="706" y="490" fill="#E9F0FF" font-size="26" font-family="PingFang SC, Microsoft YaHei, sans-serif" font-weight="700" letter-spacing="2">精密检测工作台</text>
    <text x="686" y="582" fill="#F0D89B" font-size="24" font-family="PingFang SC, Microsoft YaHei, sans-serif" font-weight="700" letter-spacing="3">机芯维修 · 外观翻新 · 防水检测</text>
  </g>

  <g opacity="0.94">
    <ellipse cx="800" cy="462" rx="104" ry="56" fill="#D7A85A"/>
    <ellipse cx="800" cy="462" rx="78" ry="34" fill="#EFD194"/>
    <ellipse cx="800" cy="462" rx="38" ry="14" fill="#FFF0C4"/>
    <path d="M800 426V462L828 478" stroke="#7D5723" stroke-width="10" stroke-linecap="round" stroke-linejoin="round"/>
  </g>

  <g opacity="0.9">
    <rect x="294" y="452" width="148" height="212" rx="16" fill="#11181E"/>
    <rect x="306" y="466" width="124" height="188" rx="12" fill="#24313A"/>
    <text x="346" y="522" fill="#F2F6FF" font-size="26" font-family="PingFang SC, Microsoft YaHei, sans-serif" font-weight="700">原装</text>
    <text x="346" y="566" fill="#F2F6FF" font-size="26" font-family="PingFang SC, Microsoft YaHei, sans-serif" font-weight="700">配件</text>
    <text x="332" y="614" fill="#D3DBEA" font-size="18" font-family="PingFang SC, Microsoft YaHei, sans-serif" font-weight="600">标准拆洗</text>
  </g>

  <g opacity="0.9">
    <rect x="1158" y="452" width="148" height="212" rx="16" fill="#11181E"/>
    <rect x="1170" y="466" width="124" height="188" rx="12" fill="#253139"/>
    <text x="1200" y="522" fill="#F2F6FF" font-size="26" font-family="PingFang SC, Microsoft YaHei, sans-serif" font-weight="700">一年</text>
    <text x="1200" y="566" fill="#F2F6FF" font-size="26" font-family="PingFang SC, Microsoft YaHei, sans-serif" font-weight="700">保修</text>
    <text x="1187" y="614" fill="#D3DBEA" font-size="18" font-family="PingFang SC, Microsoft YaHei, sans-serif" font-weight="600">安心交付</text>
  </g>

  <rect x="642" y="660" width="316" height="96" rx="18" fill="#0D1418" stroke="#CEAA61" stroke-width="4"/>
  <text x="694" y="704" fill="#E9F2FF" font-size="25" font-family="PingFang SC, Microsoft YaHei, sans-serif" font-weight="700" letter-spacing="2">名表维修接待台</text>
  <text x="720" y="736" fill="#C9D7EE" font-size="19" font-family="PingFang SC, Microsoft YaHei, sans-serif" font-weight="600">CHECK-IN  SERVICE  DELIVERY</text>

  <rect x="566" y="392" width="16" height="378" fill="url(#doorFrame)"/>
  <rect x="1018" y="392" width="16" height="378" fill="url(#doorFrame)"/>
  <rect x="582" y="392" width="436" height="378" rx="16" fill="url(#doorGlass)" stroke="rgba(233,237,245,0.24)" stroke-width="2"/>
  <path d="M800 392V770" stroke="rgba(233,237,245,0.26)" stroke-width="4"/>
  <rect x="788" y="560" width="24" height="74" rx="12" fill="#CCA35C"/>
  <rect x="760" y="560" width="12" height="74" rx="6" fill="#E7C988"/>
  <rect x="828" y="560" width="12" height="74" rx="6" fill="#E7C988"/>

  <g opacity="0.75">
    <path d="M584 442C656 468 724 482 800 484C876 486 944 470 1016 438" stroke="#F5FBFF" stroke-opacity="0.26" stroke-width="20" stroke-linecap="round"/>
    <path d="M256 432C320 452 390 470 458 486" stroke="#DDF1FF" stroke-opacity="0.18" stroke-width="18" stroke-linecap="round"/>
    <path d="M1106 420C1182 446 1244 466 1332 486" stroke="#DDF1FF" stroke-opacity="0.18" stroke-width="18" stroke-linecap="round"/>
  </g>

  <g opacity="0.94">
    <rect x="238" y="776" width="1124" height="18" rx="9" fill="#A57A3D"/>
    <rect x="234" y="794" width="1132" height="58" rx="12" fill="#121A21"/>
    <rect x="234" y="794" width="1132" height="58" rx="12" stroke="rgba(246,224,175,0.18)" stroke-width="2"/>
  </g>

  <g>
    <rect x="282" y="706" width="86" height="124" rx="16" fill="#162027"/>
    <rect x="290" y="714" width="70" height="108" rx="12" fill="#24333A"/>
    <rect x="320" y="650" width="10" height="68" fill="#6F5833"/>
    <ellipse cx="325" cy="634" rx="54" ry="62" fill="#2A433A"/>
    <ellipse cx="325" cy="634" rx="42" ry="50" fill="#486A59"/>
  </g>

  <g>
    <rect x="1232" y="706" width="86" height="124" rx="16" fill="#162027"/>
    <rect x="1240" y="714" width="70" height="108" rx="12" fill="#24333A"/>
    <rect x="1270" y="650" width="10" height="68" fill="#6F5833"/>
    <ellipse cx="1275" cy="634" rx="54" ry="62" fill="#2A433A"/>
    <ellipse cx="1275" cy="634" rx="42" ry="50" fill="#486A59"/>
  </g>

  <g opacity="0.95">
    <circle cx="182" cy="430" r="78" fill="#121417" stroke="#F7F2E4" stroke-width="8"/>
    <text x="136" y="408" fill="#FBF8F1" font-size="28" font-family="PingFang SC, Microsoft YaHei, sans-serif" font-weight="700">机芯</text>
    <text x="136" y="448" fill="#FBF8F1" font-size="28" font-family="PingFang SC, Microsoft YaHei, sans-serif" font-weight="700">维修</text>
  </g>

  <g opacity="0.95">
    <circle cx="1418" cy="430" r="78" fill="#121417" stroke="#F7F2E4" stroke-width="8"/>
    <text x="1372" y="408" fill="#FBF8F1" font-size="28" font-family="PingFang SC, Microsoft YaHei, sans-serif" font-weight="700">防水</text>
    <text x="1372" y="448" fill="#FBF8F1" font-size="28" font-family="PingFang SC, Microsoft YaHei, sans-serif" font-weight="700">检测</text>
  </g>

  <g opacity="0.92">
    <rect x="0" y="852" width="1600" height="268" fill="url(#streetGround)"/>
    <path d="M0 906C186 878 326 884 512 912C714 942 842 944 1034 914C1216 886 1340 878 1600 912V1120H0V906Z" fill="url(#roadLayer)"/>
  </g>

  <g opacity="0.28">
    <path d="M238 852C362 882 488 890 640 890H960C1112 890 1238 882 1362 852V940C1230 966 1102 980 960 980H640C498 980 370 966 238 940V852Z" fill="url(#reflectionGlow)"/>
    <path d="M596 852V972" stroke="#FCE6B7" stroke-opacity="0.24" stroke-width="24" stroke-linecap="round"/>
    <path d="M800 852V988" stroke="#FCE6B7" stroke-opacity="0.28" stroke-width="30" stroke-linecap="round"/>
    <path d="M1004 852V972" stroke="#FCE6B7" stroke-opacity="0.24" stroke-width="24" stroke-linecap="round"/>
  </g>

  <g opacity="0.34" stroke="#0A1218" stroke-width="22" stroke-linecap="round">
    <path d="M64 894C148 938 204 994 246 1112"/>
    <path d="M330 900C418 946 478 1004 518 1116"/>
    <path d="M642 904C728 950 784 1010 824 1120"/>
    <path d="M980 902C1060 946 1120 1006 1162 1118"/>
    <path d="M1322 896C1402 944 1462 1002 1502 1118"/>
  </g>

  <g opacity="0.3" stroke="#FFF6DE" stroke-width="18" stroke-linecap="round">
    <path d="M90 62C144 194 110 320 164 500"/>
    <path d="M324 42C386 212 354 340 404 548"/>
    <path d="M1002 54C950 232 982 354 936 548"/>
    <path d="M1258 74C1214 218 1242 334 1202 524"/>
    <path d="M1462 102C1424 220 1450 328 1414 486"/>
  </g>

  <defs>
    <linearGradient id="sideWallLeft" x1="0" y1="0" x2="196" y2="1120" gradientUnits="userSpaceOnUse">
      <stop stop-color="#16222C"/>
      <stop offset="1" stop-color="#31404D"/>
    </linearGradient>
    <linearGradient id="sideWallRight" x1="1404" y1="0" x2="1600" y2="1120" gradientUnits="userSpaceOnUse">
      <stop stop-color="#22313C"/>
      <stop offset="1" stop-color="#3A4954"/>
    </linearGradient>
    <linearGradient id="skyTint" x1="800" y1="0" x2="800" y2="192" gradientUnits="userSpaceOnUse">
      <stop stop-color="#183148"/>
      <stop offset="1" stop-color="#0D1823" stop-opacity="0"/>
    </linearGradient>
    <radialGradient id="nightGlow" cx="0" cy="0" r="1" gradientUnits="userSpaceOnUse" gradientTransform="translate(1180 126) rotate(90) scale(260 460)">
      <stop stop-color="#FFDE97" stop-opacity="0.18"/>
      <stop offset="1" stop-color="#FFDE97" stop-opacity="0"/>
    </radialGradient>
    <radialGradient id="streetWash" cx="0" cy="0" r="1" gradientUnits="userSpaceOnUse" gradientTransform="translate(786 628) rotate(90) scale(612 1048)">
      <stop offset="0.1" stop-color="#10212E" stop-opacity="0"/>
      <stop offset="1" stop-color="#000000" stop-opacity="0.34"/>
    </radialGradient>
    <radialGradient id="sunHalo" cx="0" cy="0" r="1" gradientUnits="userSpaceOnUse" gradientTransform="translate(1180 126) rotate(90) scale(138 318)">
      <stop stop-color="#F7D38C" stop-opacity="0.38"/>
      <stop offset="1" stop-color="#F7D38C" stop-opacity="0"/>
    </radialGradient>
    <linearGradient id="signEdge" x1="186" y1="164" x2="1414" y2="248" gradientUnits="userSpaceOnUse">
      <stop stop-color="#DAB36B"/>
      <stop offset="0.48" stop-color="#F0D99C"/>
      <stop offset="1" stop-color="#9E7435"/>
    </linearGradient>
    <linearGradient id="awningTop" x1="218" y1="254" x2="1382" y2="308" gradientUnits="userSpaceOnUse">
      <stop stop-color="#6A4B3A"/>
      <stop offset="0.4" stop-color="#915E48"/>
      <stop offset="1" stop-color="#5B4034"/>
    </linearGradient>
    <linearGradient id="awningFace" x1="800" y1="300" x2="800" y2="374" gradientUnits="userSpaceOnUse">
      <stop stop-color="#3E2A22"/>
      <stop offset="1" stop-color="#271C18"/>
    </linearGradient>
    <linearGradient id="frameGold" x1="224" y1="350" x2="1376" y2="778" gradientUnits="userSpaceOnUse">
      <stop stop-color="#D4B06F"/>
      <stop offset="0.5" stop-color="#9D7437"/>
      <stop offset="1" stop-color="#E0C27F"/>
    </linearGradient>
    <linearGradient id="windowGlassLeft" x1="256" y1="386" x2="500" y2="746" gradientUnits="userSpaceOnUse">
      <stop stop-color="#566D7A"/>
      <stop offset="0.28" stop-color="#26353E"/>
      <stop offset="0.74" stop-color="#0C1216"/>
      <stop offset="1" stop-color="#31424D"/>
    </linearGradient>
    <linearGradient id="windowGlassRight" x1="1100" y1="386" x2="1344" y2="746" gradientUnits="userSpaceOnUse">
      <stop stop-color="#617785"/>
      <stop offset="0.28" stop-color="#29363D"/>
      <stop offset="0.74" stop-color="#0C1216"/>
      <stop offset="1" stop-color="#354650"/>
    </linearGradient>
    <linearGradient id="interiorGlass" x1="526" y1="386" x2="1074" y2="746" gradientUnits="userSpaceOnUse">
      <stop stop-color="#4C6270"/>
      <stop offset="0.24" stop-color="#24313A"/>
      <stop offset="0.72" stop-color="#0C1216"/>
      <stop offset="1" stop-color="#2D3D47"/>
    </linearGradient>
    <linearGradient id="doorFrame" x1="566" y1="392" x2="1034" y2="770" gradientUnits="userSpaceOnUse">
      <stop stop-color="#DAB56F"/>
      <stop offset="1" stop-color="#A67B3E"/>
    </linearGradient>
    <linearGradient id="doorGlass" x1="582" y1="392" x2="1018" y2="770" gradientUnits="userSpaceOnUse">
      <stop stop-color="#6E8797" stop-opacity="0.68"/>
      <stop offset="0.34" stop-color="#2B3941" stop-opacity="0.54"/>
      <stop offset="0.74" stop-color="#10171C" stop-opacity="0.7"/>
      <stop offset="1" stop-color="#465763" stop-opacity="0.6"/>
    </linearGradient>
    <linearGradient id="streetGround" x1="0" y1="852" x2="1600" y2="1120" gradientUnits="userSpaceOnUse">
      <stop stop-color="#70645E"/>
      <stop offset="1" stop-color="#504A47"/>
    </linearGradient>
    <linearGradient id="roadLayer" x1="800" y1="906" x2="800" y2="1120" gradientUnits="userSpaceOnUse">
      <stop stop-color="#6D6663"/>
      <stop offset="1" stop-color="#45413F"/>
    </linearGradient>
    <radialGradient id="reflectionGlow" cx="0" cy="0" r="1" gradientUnits="userSpaceOnUse" gradientTransform="translate(800 860) rotate(90) scale(154 582)">
      <stop stop-color="#F2D39A"/>
      <stop offset="1" stop-color="#F2D39A" stop-opacity="0"/>
    </radialGradient>
  </defs>
</svg>
