<svg width="1600" height="1200" viewBox="0 0 1600 1200" fill="none" xmlns="http://www.w3.org/2000/svg">
  <rect width="1600" height="1200" fill="#07111C"/>
  <rect width="1600" height="1200" fill="url(#deskGlow)"/>
  <rect y="836" width="1600" height="364" fill="url(#deskSurface)"/>

  <rect x="272" y="238" width="566" height="466" rx="34" transform="rotate(-6 272 238)" fill="#F1E5C6"/>
  <rect x="272" y="238" width="566" height="466" rx="34" transform="rotate(-6 272 238)" stroke="#D2B06C" stroke-width="8"/>
  <rect x="374" y="340" width="120" height="110" rx="18" transform="rotate(-6 374 340)" fill="#15212A"/>
  <rect x="518" y="326" width="196" height="26" rx="13" transform="rotate(-6 518 326)" fill="#263643"/>
  <rect x="518" y="372" width="164" height="20" rx="10" transform="rotate(-6 518 372)" fill="#7287A1"/>
  <rect x="360" y="494" width="374" height="168" rx="24" transform="rotate(-6 360 494)" fill="#FAF5E7"/>
  <path d="M420 556H666" stroke="#94A7BF" stroke-width="14" stroke-linecap="round"/>
  <path d="M406 604H690" stroke="#CAD5E3" stroke-width="10" stroke-linecap="round"/>
  <path d="M396 646H676" stroke="#CAD5E3" stroke-width="10" stroke-linecap="round"/>

  <g opacity="0.98">
    <circle cx="1068" cy="566" r="248" fill="url(#watchCase)" stroke="url(#watchEdge)" stroke-width="14"/>
    <circle cx="1068" cy="566" r="184" fill="#13202A" stroke="rgba(255,255,255,0.16)" stroke-width="4"/>
    <circle cx="1068" cy="566" r="18" fill="#F0D08C"/>
    <path d="M1068 446V566" stroke="#F7E6B7" stroke-width="14" stroke-linecap="round"/>
    <path d="M1068 566L1168 622" stroke="#D8E7F7" stroke-width="10" stroke-linecap="round"/>
  </g>

  <g opacity="0.9">
    <rect x="974" y="310" width="188" height="78" rx="30" fill="#1A2732" stroke="#D3AE67" stroke-width="6"/>
    <rect x="1002" y="332" width="132" height="34" rx="17" fill="#0F171E"/>
    <circle cx="1068" cy="349" r="18" fill="#E9C67E"/>
  </g>

  <g opacity="0.95">
    <circle cx="1332" cy="404" r="102" fill="#101B26" stroke="#D3AE67" stroke-width="8"/>
    <circle cx="1332" cy="404" r="64" fill="#0B141C" stroke="#8EA9C8" stroke-width="4"/>
    <circle cx="1332" cy="404" r="18" fill="#F0D08C"/>
    <path d="M1332 354V404L1368 432" stroke="#F7E6B7" stroke-width="8" stroke-linecap="round"/>
  </g>

  <g opacity="0.92">
    <rect x="994" y="872" width="332" height="118" rx="28" fill="#131D28" stroke="rgba(255,255,255,0.08)" stroke-width="2"/>
    <circle cx="1072" cy="932" r="22" fill="#F0D08C"/>
    <rect x="1114" y="920" width="154" height="16" rx="8" fill="#EDF3FA"/>
    <rect x="1114" y="950" width="112" height="12" rx="6" fill="#8AA1BC"/>
  </g>

  <g opacity="0.9">
    <rect x="844" y="902" width="72" height="124" rx="22" fill="#24333E"/>
    <rect x="854" y="916" width="52" height="96" rx="16" fill="#0F171E"/>
    <circle cx="880" cy="962" r="18" fill="#F0D08C"/>
    <circle cx="880" cy="962" r="8" fill="#101920"/>
  </g>

  <g opacity="0.26" stroke="#FFF2CC" stroke-width="18" stroke-linecap="round">
    <path d="M240 124C322 194 354 308 344 454"/>
    <path d="M1452 156C1380 234 1342 350 1348 492"/>
  </g>

  <defs>
    <radialGradient id="deskGlow" cx="0" cy="0" r="1" gradientUnits="userSpaceOnUse" gradientTransform="translate(916 474) rotate(90) scale(640 940)">
      <stop stop-color="#203247"/>
      <stop offset="0.58" stop-color="#0D1823"/>
      <stop offset="1" stop-color="#07111C"/>
    </radialGradient>
    <linearGradient id="deskSurface" x1="0" y1="836" x2="1600" y2="1200" gradientUnits="userSpaceOnUse">
      <stop stop-color="#3B2D22"/>
      <stop offset="1" stop-color="#17110E"/>
    </linearGradient>
    <radialGradient id="watchCase" cx="0" cy="0" r="1" gradientUnits="userSpaceOnUse" gradientTransform="translate(1068 566) rotate(90) scale(248)">
      <stop stop-color="#223A50"/>
      <stop offset="1" stop-color="#0B151E"/>
    </radialGradient>
    <linearGradient id="watchEdge" x1="820" y1="320" x2="1328" y2="830" gradientUnits="userSpaceOnUse">
      <stop stop-color="#F2D593"/>
      <stop offset="0.5" stop-color="#A77934"/>
      <stop offset="1" stop-color="#E8CC8D"/>
    </linearGradient>
  </defs>
</svg>
